<svg width="99" height="32" viewBox="0 0 99 32" fill="none" xmlns="http://www.w3.org/2000/svg">
<path d="M15.0355 0.00399969C7.86909 0.00399969 1.81812 0.00399969 1.81812 0.00399969C1.81812 0.00399969 16.9746 5.04115 10.3784 15.2728C10.3784 15.2728 21.5881 7.34773 15.0355 0" fill="#00ABCC"/>
<path d="M10.7381 9.45435C3.17858 12.5323 -3.25711 20.5934 11.0829 31.9999H23.2727C23.2727 31.9999 -1.30208 17.6881 10.7381 9.45566" fill="#F27123"/>
<path d="M0.709775 20C0.709775 20 -1.51212 25.7681 1.90648 32H10.1818C6.0534 30.1139 0.539571 24.8471 0.709775 20.0013" fill="#F27123"/>
<path d="M25.7201 13.4548C22.5303 13.4548 20.7273 15.9728 20.7273 19.3506C20.7273 23.2891 22.5973 25.0908 26.0113 25.0908C27.3059 25.103 28.5906 24.858 29.7939 24.3693L29.5723 22.4568C28.5715 22.9344 27.4802 23.1803 26.3761 23.177C24.1967 23.177 23.0806 22.007 23.1425 19.4192H30.1136C30.1555 19.0452 30.1783 18.6693 30.1819 18.2928C30.1819 15.6364 28.8402 13.4548 25.7149 13.4548H25.7201ZM23.1837 17.7309C23.3848 16.2194 24.3076 15.2249 25.6324 15.2249C27.0179 15.2249 27.8749 16.1917 27.8234 17.7309H23.1837Z" fill="#00ABCC"/>
<path d="M38.4653 13.4548C36.5577 13.4548 35.2 14.4623 34.5438 15.9325L34.5198 15.9083C34.627 15.1712 34.6799 14.4271 34.6779 13.6822H32.3638V25.0912H34.7895V19.5764C34.7895 17.3018 36.0383 15.4886 37.7373 15.4886C39.0299 15.4886 39.4165 16.3158 39.4165 17.739V25.0912H41.8183V17.1014C41.8183 15.0837 41.0213 13.4548 38.4653 13.4548Z" fill="#00ABCC"/>
<path d="M49.1805 13.4548C45.8703 13.4548 44 15.9727 44 19.3506C44 23.2891 45.9398 25.0908 49.4813 25.0908C50.8247 25.1034 52.1578 24.8584 53.4064 24.3693L53.1792 22.4568C52.1425 22.9329 51.0125 23.1788 49.869 23.1769C47.6123 23.1769 46.4505 22.007 46.5147 19.4192H53.75C53.7928 18.9905 53.8182 18.608 53.8182 18.2928C53.8182 15.6364 52.4252 13.4548 49.1858 13.4548H49.1805ZM46.5615 17.7309C46.766 16.2194 47.7246 15.2249 49.0936 15.2249C50.5308 15.2249 51.4211 16.1917 51.3757 17.7309H46.5615Z" fill="#00ABCC"/>
<path d="M58.1125 16.2302H58.0691C58.2112 15.3974 58.2856 14.5541 58.2915 13.7088H56.0002V25.0912H58.4033V20.4634C58.4033 17.0492 59.4838 15.4676 61.7066 15.8798L61.8184 13.4752C59.7286 13.2671 58.606 14.6836 58.1125 16.2248" fill="#00ABCC"/>
<path d="M70.3584 22.8146C69.8126 22.9556 69.2508 23.028 68.6866 23.0299C66.5531 23.0299 65.0727 21.7089 65.0727 19.2939C65.0727 16.7364 66.7927 15.4113 68.9249 15.4113C70.0027 15.4156 71.07 15.6214 72.0703 16.0177L72.4893 13.9767C71.3257 13.6312 70.1172 13.4554 68.9021 13.4548C64.9188 13.4548 62.5457 16.1062 62.5457 19.4908C62.5457 23.1832 65.0312 25.0908 68.4618 25.0908C69.919 25.1034 71.3657 24.8471 72.7275 24.3351V19.0152H70.3584V22.8146Z" fill="#00ABCC"/>
<path d="M77.4546 13.8184H74.9092V25.0911H77.4546V13.8184Z" fill="#00ABCC"/>
<path d="M98.182 24.8635C98.1368 23.9205 98.1161 22.772 98.1161 21.8065V17.2323C98.1161 14.9366 97.1867 13.4548 93.835 13.4548C92.5148 13.463 91.2068 13.7137 89.974 14.195L90.1937 16.2431C91.1205 15.657 92.4467 15.3409 93.4601 15.3409C95.1767 15.3409 95.7519 16.284 95.7519 17.6709C93.4743 17.6709 91.2433 18.2398 90.0851 19.4397C89.7752 19.7568 89.5285 20.1321 89.3587 20.5447C89.1394 21.057 89.0526 21.618 89.1067 22.1742C89.1608 22.7304 89.3539 23.2631 89.6676 23.7216C90.3437 24.7502 91.0959 25.1151 92.3549 25.09C94.0974 25.0518 95.4637 24.0996 95.9936 22.772L96.0169 22.7957C95.933 23.4815 95.8958 24.1724 95.9057 24.8635H98.182ZM95.7558 19.5148C95.7558 21.1137 94.6739 23.2026 93.0633 23.2026C92.739 23.2191 92.4157 23.1535 92.1223 23.0117C91.5186 22.6863 90.9085 21.0874 92.0744 20.1285C92.4422 19.8569 92.8612 19.6658 93.305 19.5675C94.1091 19.3709 94.9342 19.2784 95.761 19.2922L95.7558 19.5148Z" fill="#00ABCC"/>
<path d="M82.2551 16.4995C82.2551 15.6448 83.4509 15.2563 84.8558 15.2549C85.6414 15.2474 86.4214 15.3833 87.1552 15.6555L87.2667 13.786C86.6846 13.5537 85.7462 13.4535 85.0568 13.4548C81.8451 13.4548 79.6448 14.7902 79.6365 16.7305C79.6227 20.6031 85.3416 19.7364 85.3361 21.9838C85.3361 22.9066 84.4788 23.0655 83.1 23.0668C82.1959 23.0668 80.7704 22.7223 79.953 22.3684L79.8759 24.529C80.8648 24.8703 81.9024 25.06 82.9514 25.0912C86.1163 25.0912 87.9946 23.8533 88.0001 21.7595C88.0153 18.0445 82.2496 18.6628 82.2565 16.5022" fill="#00ABCC"/>
</svg>
